<svg width="14" height="6" viewBox="0 0 14 6" fill="none" xmlns="http://www.w3.org/2000/svg">
<path fill-rule="evenodd" clip-rule="evenodd" d="M2.59998 2.9998C2.59998 2.88935 2.68952 2.7998 2.79998 2.7998C2.91043 2.7998 2.99998 2.88935 2.99998 2.9998C2.99998 3.11026 2.91043 3.1998 2.79998 3.1998C2.68952 3.1998 2.59998 3.11026 2.59998 2.9998ZM2.79998 0.799805C1.58495 0.799805 0.599976 1.78478 0.599976 2.9998C0.599976 4.21483 1.58495 5.1998 2.79998 5.1998C4.015 5.1998 4.99998 4.21483 4.99998 2.9998C4.99998 1.78478 4.015 0.799805 2.79998 0.799805ZM11 2.9998C11 2.88935 11.0895 2.7998 11.2 2.7998C11.3104 2.7998 11.4 2.88935 11.4 2.9998C11.4 3.11026 11.3104 3.1998 11.2 3.1998C11.0895 3.1998 11 3.11026 11 2.9998ZM11.2 0.799805C9.98495 0.799805 8.99998 1.78478 8.99998 2.9998C8.99998 4.21483 9.98495 5.1998 11.2 5.1998C12.415 5.1998 13.4 4.21483 13.4 2.9998C13.4 1.78478 12.415 0.799805 11.2 0.799805Z" fill="#9E9E9E"/>
</svg>
